<?xml version="1.0" encoding="UTF-8" standalone="no"?><!DOCTYPE svg PUBLIC "-//W3C//DTD SVG 1.1//EN" "http://www.w3.org/Graphics/SVG/1.1/DTD/svg11.dtd"><svg width="100%" height="100%" viewBox="0 0 3834 2500" version="1.1" xmlns="http://www.w3.org/2000/svg" xmlns:xlink="http://www.w3.org/1999/xlink" xml:space="preserve" xmlns:serif="http://www.serif.com/" style="fill-rule:evenodd;clip-rule:evenodd;"><g><g id="sankey_flows"><path id="flow1" d="M1007.27,1548.91c450.177,0 450.177,-137.886 900.354,-137.886" style="fill:none;fill-rule:nonzero;stroke:#ff7f0e;stroke-opacity:0.45;stroke-width:1735.51px;"/><path id="flow2" d="M1945.12,630.962c441.844,-0 441.844,516.666 883.688,516.666" style="fill:none;fill-rule:nonzero;stroke:#1f77b4;stroke-opacity:0.45;stroke-width:223.11px;"/><path id="flow0" d="M1007.27,172.273c450.177,-0 450.177,359.066 900.354,359.066" style="fill:none;fill-rule:nonzero;stroke:#17becf;stroke-opacity:0.45;stroke-width:23.87px;"/><path id="flow3" d="M2866.31,1038.98c439.76,-0 439.76,-527.59 879.52,-527.59" style="fill:none;fill-rule:nonzero;stroke:#d62728;stroke-opacity:0.45;stroke-width:5.81px;"/><path id="flow4" d="M2866.31,1042.19c439.76,-0 439.76,-32.642 879.52,-32.642" style="fill:none;fill-rule:nonzero;stroke:#9467bd;stroke-opacity:0.45;stroke-width:4.17px;"/><path id="flow5" d="M2866.31,1042.69c439.76,-0.001 439.76,465.849 879.52,465.849" style="fill:none;fill-rule:nonzero;stroke:#8c564b;stroke-opacity:0.45;stroke-width:4.17px;"/></g><g id="sankey_nodes"><g><rect id="r0" x="969.771" y="160.339" width="37.5" height="23.868" style="fill:#17becf;"/></g><g><rect id="r1" x="1907.62" y="519.405" width="37.5" height="1759.38" style="fill:#1f77b4;"/></g><g><rect id="r2" x="969.771" y="681.16" width="37.5" height="1735.51" style="fill:#ff7f0e;"/></g><g><rect id="r3" x="2828.81" y="1036.07" width="37.5" height="223.113" style="fill:#2ca02c;"/></g><g><rect id="r4" x="3745.83" y="508.482" width="37.5" height="5.811" style="fill:#d62728;"/></g><g><rect id="r5" x="3745.83" y="1009.24" width="37.5" height="4.167" style="fill:#9467bd;"/></g><g><rect id="r6" x="3745.83" y="1508.36" width="37.5" height="4.167" style="fill:#8c564b;"/></g></g><g id="sankey_labels"><path id="label0_bg" d="M962.968,138.793c0,-9.198 -7.468,-16.666 -16.667,-16.666l-525.923,-0c-9.199,-0 -16.667,7.468 -16.667,16.666l-0,63.75c-0,9.199 7.468,16.667 16.667,16.667l525.923,0c9.199,0 16.667,-7.468 16.667,-16.667l0,-63.75Z" style="fill:#fff;fill-opacity:0.55;"/><text id="label0" x="424.814px" y="194.627px" style="font-family:'Helvetica';font-size:66.667px;">My followers: 460</text><path id="label1_bg" d="M1900.82,1365.61c0,-9.199 -7.468,-16.667 -16.666,-16.667l-678.105,-0c-9.199,-0 -16.667,7.468 -16.667,16.667l0,63.75c0,9.198 7.468,16.666 16.667,16.666l678.105,0c9.198,0 16.666,-7.468 16.666,-16.666l0,-63.75Z" style="fill:#fff;fill-opacity:0.55;"/><text id="label1" x="1210.49px" y="1421.45px" style="font-family:'Helvetica';font-size:66.667px;">T<tspan x="1243.82px 1280.9px " y="1421.45px 1421.45px ">ot</tspan>al audience: 33,908</text><path id="label2_bg" d="M962.968,1515.43c0,-9.199 -7.468,-16.667 -16.667,-16.667l-879.634,0c-9.199,0 -16.667,7.468 -16.667,16.667l-0,63.75c-0,9.199 7.468,16.667 16.667,16.667l879.634,-0c9.199,-0 16.667,-7.468 16.667,-16.667l0,-63.75Z" style="fill:#fff;fill-opacity:0.55;"/><text id="label2" x="71.103px" y="1571.27px" style="font-family:'Helvetica';font-size:66.667px;">Retweeters&apos; followers: 33,448</text><path id="label3_bg" d="M2822.01,1114.15c-0,-9.198 -7.468,-16.666 -16.667,-16.666l-570.455,-0c-9.199,-0 -16.667,7.468 -16.667,16.666l0,63.75c0,9.199 7.468,16.667 16.667,16.667l570.455,-0c9.199,-0 16.667,-7.468 16.667,-16.667l-0,-63.75Z" style="fill:#fff;fill-opacity:0.55;"/><text id="label3" x="2239.32px" y="1169.98px" style="font-family:'Helvetica';font-size:66.667px;">Impressions: 4,300</text><path id="label4_bg" d="M3739.03,477.908c0,-9.198 -7.468,-16.666 -16.666,-16.666l-569.381,-0c-9.199,-0 -16.667,7.468 -16.667,16.666l0,63.913c0,9.199 7.468,16.667 16.667,16.667l569.381,-0c9.198,-0 16.666,-7.468 16.666,-16.667l0,-63.913Z" style="fill:#fff;fill-opacity:0.55;"/><text id="label4" x="3157.42px" y="533.742px" style="font-family:'Helvetica';font-size:66.667px;">danielgrant.co: 1<tspan x="3645.44px 3682.52px " y="533.742px 533.742px ">12</tspan></text><path id="label5_bg" d="M3739.03,977.845c0,-9.198 -7.468,-16.666 -16.666,-16.666l-274.036,-0c-9.199,-0 -16.667,7.468 -16.667,16.666l0,63.75c0,9.199 7.468,16.667 16.667,16.667l274.036,0c9.198,0 16.666,-7.468 16.666,-16.667l0,-63.75Z" style="fill:#fff;fill-opacity:0.55;"/><text id="label5" x="3452.76px" y="1033.68px" style="font-family:'Helvetica';font-size:66.667px;">Likes: 12</text><path id="label6_bg" d="M3739.03,1476.96c0,-9.199 -7.468,-16.667 -16.666,-16.667l-414.759,0c-9.198,0 -16.666,7.468 -16.666,16.667l-0,63.75c-0,9.198 7.468,16.667 16.666,16.667l414.759,-0c9.198,-0 16.666,-7.469 16.666,-16.667l0,-63.75Z" style="fill:#fff;fill-opacity:0.55;"/><text id="label6" x="3312.04px" y="1532.79px" style="font-family:'Helvetica';font-size:66.667px;">Bookmarks: 7</text></g></g><circle cx="3256.94" cy="814.986" r="130.366" style="fill:#fff;fill-opacity:0.71;stroke:#000;stroke-width:16.67px;stroke-linecap:round;stroke-linejoin:round;stroke-miterlimit:1.5;"/><circle cx="2154.61" cy="518.073" r="130.366" style="fill:#fff;fill-opacity:0.71;stroke:#000;stroke-width:16.67px;stroke-linecap:round;stroke-linejoin:round;stroke-miterlimit:1.5;"/><g transform="matrix(88.1273,0,0,88.1273,3365.36,844.607)"></g><text x="3164.49px" y="844.607px" style="font-family:'Arial-BoldMT', 'Arial', sans-serif;font-weight:700;font-size:88.127px;">2.6%</text><g transform="matrix(88.1273,0,0,88.1273,2238.54,547.693)"></g><text x="2062.16px" y="547.693px" style="font-family:'Arial-BoldMT', 'Arial', sans-serif;font-weight:700;font-size:88.127px;">12%</text></svg>