<?xml version="1.0" encoding="UTF-8" standalone="no"?><!DOCTYPE svg PUBLIC "-//W3C//DTD SVG 1.1//EN" "http://www.w3.org/Graphics/SVG/1.1/DTD/svg11.dtd"><svg width="100%" height="100%" viewBox="0 0 3834 2500" version="1.1" xmlns="http://www.w3.org/2000/svg" xmlns:xlink="http://www.w3.org/1999/xlink" xml:space="preserve" xmlns:serif="http://www.serif.com/" style="fill-rule:evenodd;clip-rule:evenodd;"><g><clipPath id="_clip1"><rect x="-1.465" y="-0.439" width="3833.33" height="2500"/></clipPath><g clip-path="url(#_clip1)"><g><g id="sankey_flows"><path id="flow1" d="M935.396,1870.42c462.071,-0 462.071,-393.388 924.141,-393.388" style="fill:none;fill-rule:nonzero;stroke:#ff7f0e;stroke-opacity:0.45;stroke-width:916.61px;"/><path id="flow2" d="M1897.04,981.332c436.859,-0 436.859,385.141 873.719,385.141" style="fill:none;fill-rule:nonzero;stroke:#1f77b4;stroke-opacity:0.45;stroke-width:441.98px;"/><path id="flow0" d="M935.396,357.923c462.071,-0 462.071,531.612 924.141,531.612" style="fill:none;fill-rule:nonzero;stroke:#17becf;stroke-opacity:0.45;stroke-width:258.39px;"/><path id="flow3" d="M2808.26,1151.43c468.056,-0 468.056,-209.829 936.112,-209.829" style="fill:none;fill-rule:nonzero;stroke:#d62728;stroke-opacity:0.45;stroke-width:11.9px;"/></g><g id="sankey_nodes"><g><rect id="r0" x="897.896" y="228.727" width="37.5" height="258.391" style="fill:#17becf;"/></g><g><rect id="r1" x="1859.54" y="760.339" width="37.5" height="1175" style="fill:#1f77b4;"/></g><g><rect id="r2" x="897.896" y="1412.12" width="37.5" height="916.609" style="fill:#ff7f0e;"/></g><g><rect id="r3" x="2770.76" y="1145.48" width="37.5" height="441.985" style="fill:#2ca02c;"/></g><g><rect id="r4" x="3744.37" y="935.652" width="37.5" height="11.9" style="fill:#d62728;"/></g></g><g id="sankey_labels"><path id="label0_bg" d="M891.093,324.444c0,-9.199 -7.468,-16.667 -16.667,-16.667l-496.301,-0c-9.199,-0 -16.667,7.468 -16.667,16.667l0,63.75c0,9.198 7.468,16.666 16.667,16.666l496.301,0c9.199,0 16.667,-7.468 16.667,-16.666l0,-63.75Z" style="fill:#fff;fill-opacity:0.55;"/><text id="label0" x="382.561px" y="380.277px" style="font-family:'Helvetica';font-size:66.667px;">My network: 760</text><path id="label1_bg" d="M1852.73,1314.36c0,-9.198 -7.468,-16.666 -16.666,-16.666l-641.028,-0c-9.199,-0 -16.667,7.468 -16.667,16.666l-0,63.75c-0,9.199 7.468,16.667 16.667,16.667l641.028,-0c9.198,-0 16.666,-7.468 16.666,-16.667l0,-63.75Z" style="fill:#fff;fill-opacity:0.55;"/><text id="label1" x="1199.48px" y="1370.19px" style="font-family:'Helvetica';font-size:66.667px;">T<tspan x="1232.81px 1269.89px " y="1370.19px 1370.19px ">ot</tspan>al audience: 3,456</text><path id="label2_bg" d="M891.093,1836.94c0,-9.199 -7.468,-16.667 -16.667,-16.667l-809.224,-0c-9.199,-0 -16.667,7.468 -16.667,16.667l0,63.75c0,9.198 7.468,16.666 16.667,16.666l809.224,0c9.199,0 16.667,-7.468 16.667,-16.666l0,-63.75Z" style="fill:#fff;fill-opacity:0.55;"/><text id="label2" x="69.638px" y="1892.78px" style="font-family:'Helvetica';font-size:66.667px;">Reposters&apos; followers: 2,696</text><path id="label3_bg" d="M2763.95,1332.99c-0,-9.198 -7.468,-16.666 -16.667,-16.666l-570.455,-0c-9.199,-0 -16.667,7.468 -16.667,16.666l0,63.75c0,9.199 7.468,16.667 16.667,16.667l570.455,-0c9.199,-0 16.667,-7.468 16.667,-16.667l-0,-63.75Z" style="fill:#fff;fill-opacity:0.55;"/><text id="label3" x="2181.27px" y="1388.83px" style="font-family:'Helvetica';font-size:66.667px;">Impressions: 1,300</text><path id="label4_bg" d="M3737.57,908.123c0,-9.199 -7.468,-16.667 -16.666,-16.667l-537.22,0c-9.198,0 -16.666,7.468 -16.666,16.667l-0,63.913c-0,9.198 7.468,16.666 16.666,16.666l537.22,0c9.198,0 16.666,-7.468 16.666,-16.666l0,-63.913Z" style="fill:#fff;fill-opacity:0.55;"/><text id="label4" x="3188.12px" y="963.956px" style="font-family:'Helvetica';font-size:66.667px;">danielgrant.co: 35</text></g></g></g><circle cx="3037.12" cy="1204.41" r="130.366" style="fill:#fff;fill-opacity:0.71;stroke:#000;stroke-width:16.67px;stroke-linecap:round;stroke-linejoin:round;stroke-miterlimit:1.5;"/><g transform="matrix(88.1273,0,0,88.1273,3145.54,1234.03)"></g><text x="2944.67px" y="1234.03px" style="font-family:'Arial-BoldMT', 'Arial', sans-serif;font-weight:700;font-size:88.127px;">2.7%</text><circle cx="2138.76" cy="768.964" r="130.366" style="fill:#fff;fill-opacity:0.71;stroke:#000;stroke-width:16.67px;stroke-linecap:round;stroke-linejoin:round;stroke-miterlimit:1.5;"/><g transform="matrix(88.1273,0,0,88.1273,2231.03,798.585)"></g><text x="2054.65px" y="798.585px" style="font-family:'Arial-BoldMT', 'Arial', sans-serif;font-weight:700;font-size:88.127px;">38%</text></g></svg>